<svg xmlns="http://www.w3.org/2000/svg" width="200" height="52.77" viewBox="0 0 200 52.77">
  <g id="logo" transform="translate(-216.979 -452.413)">
    <g id="Grupo_11" data-name="Grupo 11" transform="translate(216.979 458.413)">
      <g id="Grupo_10" data-name="Grupo 10" transform="translate(0 -6)">
        <path id="Trazado_30" data-name="Trazado 30" d="M238.9,266.413V284.2c0,14.966-21.917,15.008-21.917,0V266.413h2.167V284.2c0,12.308,17.582,12.267,17.582,0V266.413Z" transform="translate(-216.979 -266.413)"/>
        <path id="Trazado_31" data-name="Trazado 31" d="M301.41,295.035h-2.9l-9.9-10.836H280.8v10.836h-2.208V266.413h12.594c6.215,0,9.364,4.457,9.405,8.913.041,4.662-3.027,8.751-9.282,8.751ZM280.8,282.115h10.14c4.989,0,7.2-2.821,7.238-6.83a6.6,6.6,0,0,0-6.992-6.828H280.8Z" transform="translate(-243.568 -266.413)"/>
        <path id="Trazado_32" data-name="Trazado 32" d="M358.908,274.223a6.286,6.286,0,0,1-4.661,6.134,7.324,7.324,0,0,1,5.643,7.2c0,5.888-5.479,7.483-10.387,7.483H337.768V266.413H349.5c4.825,0,9.405,2.371,9.405,7.81m-18.932,5.152h9.814c3.435,0,7.033-1.063,7.033-5.152,0-4.171-3.762-5.93-7.32-5.93h-9.527Zm0,13.535H349.5c3.6,0,8.219-.859,8.219-5.4-.04-4.457-4.089-6.051-7.932-6.051h-9.814Z" transform="translate(-269.096 -266.413)"/>
        <path id="Trazado_33" data-name="Trazado 33" d="M462.492,266.413l19.259,23.675V266.413h2.168v28.623h-.859L463.76,271.4v23.635h-2.208V266.413Z" transform="translate(-322.512 -266.413)"/>
        <path id="Trazado_34" data-name="Trazado 34" d="M407.347,269l11.859,26.283h2.3l-12.933-28.521h-2.413l-12.933,28.521h2.279Z" transform="translate(-293.137 -266.558)"/>
        <path id="Trazado_35" data-name="Trazado 35" d="M533.479,269l11.859,26.283h2.3l-12.933-28.521h-2.413l-12.934,28.521h2.279Z" transform="translate(-347.638 -266.558)"/>
      </g>
      <path id="Trazado_54" data-name="Trazado 54" d="M4.023-9.909h.038l2.682-7.486H8.09L4.59-8.256H3.431L-.044-17.395H1.341ZM14.675-8.256H13.429v-9.138h1.247Zm14.09-1.42a4.029,4.029,0,0,1-1.372,1.194,4.191,4.191,0,0,1-2.027.458,4.9,4.9,0,0,1-1.882-.355A4.375,4.375,0,0,1,22-9.373a4.585,4.585,0,0,1-.976-1.523,5.2,5.2,0,0,1-.353-1.942,5.154,5.154,0,0,1,.359-1.955,4.425,4.425,0,0,1,.995-1.51,4.513,4.513,0,0,1,1.5-.974,5.027,5.027,0,0,1,1.889-.348,4.82,4.82,0,0,1,.919.09,4.491,4.491,0,0,1,.894.271,3.674,3.674,0,0,1,.781.445,2.853,2.853,0,0,1,.6.613l-.982.774a2.467,2.467,0,0,0-.925-.768,2.813,2.813,0,0,0-1.291-.3,3.285,3.285,0,0,0-1.4.29,3.183,3.183,0,0,0-1.064.794,3.609,3.609,0,0,0-.68,1.168,4.142,4.142,0,0,0-.239,1.413,4.379,4.379,0,0,0,.233,1.446,3.494,3.494,0,0,0,.667,1.168,3.083,3.083,0,0,0,1.058.781,3.318,3.318,0,0,0,1.391.284,3.015,3.015,0,0,0,1.372-.31,2.663,2.663,0,0,0,1.02-.9Zm6.8.284h4.659v1.136H34.318v-9.138h5.716v1.123h-4.47v2.736H39.77v1.1H35.564Zm16.885-.7h.025v-7.305h1.247v9.138H52.147l-4.709-7.46h-.025v7.46H46.166v-9.138H47.79ZM63.29-8.256H62.044v-8.015H59.185v-1.123h6.963v1.123H63.29ZM72.86-9.392h4.659v1.136H71.613v-9.138h5.716v1.123H72.86v2.736h4.205v1.1H72.86Zm19.277,0h3.979v1.136H90.89v-9.138h1.247Zm18.081-3.446a5.118,5.118,0,0,1-.359,1.942,4.615,4.615,0,0,1-.988,1.523,4.428,4.428,0,0,1-1.5.994,4.946,4.946,0,0,1-1.889.355,4.9,4.9,0,0,1-1.882-.355,4.442,4.442,0,0,1-1.492-.994,4.535,4.535,0,0,1-.982-1.523,5.2,5.2,0,0,1-.353-1.942,5.235,5.235,0,0,1,.353-1.955,4.4,4.4,0,0,1,.982-1.51,4.459,4.459,0,0,1,1.492-.974,4.978,4.978,0,0,1,1.882-.348,5.027,5.027,0,0,1,1.889.348,4.444,4.444,0,0,1,1.5.974,4.472,4.472,0,0,1,.988,1.51A5.154,5.154,0,0,1,110.218-12.838Zm-1.347,0a4.141,4.141,0,0,0-.239-1.413,3.609,3.609,0,0,0-.68-1.168,3.183,3.183,0,0,0-1.064-.794,3.285,3.285,0,0,0-1.4-.29,3.255,3.255,0,0,0-1.391.29,3.117,3.117,0,0,0-1.058.794,3.671,3.671,0,0,0-.674,1.168,4.142,4.142,0,0,0-.239,1.413,4.235,4.235,0,0,0,.239,1.433,3.521,3.521,0,0,0,.68,1.168,3.165,3.165,0,0,0,1.058.781,3.275,3.275,0,0,0,1.385.284,3.361,3.361,0,0,0,1.4-.284,3.132,3.132,0,0,0,1.07-.781,3.52,3.52,0,0,0,.68-1.168A4.235,4.235,0,0,0,108.871-12.838Zm-3.1-5.279h-.957l1.247-1.859H107.5Zm10.426.723h2.72a5.383,5.383,0,0,1,1.309.148,2.808,2.808,0,0,1,1.007.458,2.076,2.076,0,0,1,.642.787,2.661,2.661,0,0,1,.227,1.149,2.6,2.6,0,0,1-.246,1.175,2.145,2.145,0,0,1-.68.8,3.006,3.006,0,0,1-1.032.458,5.348,5.348,0,0,1-1.291.148h-1.41v4.014H116.2Zm1.247,4.04h1.322a3.924,3.924,0,0,0,.837-.084,2.056,2.056,0,0,0,.661-.258,1.2,1.2,0,0,0,.428-.458,1.469,1.469,0,0,0,.151-.7,1.383,1.383,0,0,0-.157-.691,1.283,1.283,0,0,0-.428-.452,1.8,1.8,0,0,0-.648-.245,4.435,4.435,0,0,0-.818-.071h-1.347Zm11.773,3.962h4.659v1.136h-5.905v-9.138h5.716v1.123h-4.47v2.736h4.206v1.1h-4.206ZM145.7-16.272l-5.036,6.879h5.112v1.136h-6.623V-9.379l5.024-6.892h-4.923v-1.123H145.7Z" transform="translate(25.258 54.794)"/>
    </g>
  </g>
</svg>
